<svg xmlns="http://www.w3.org/2000/svg" width="31.22" height="27.602" viewBox="0 0 31.22 27.602">
  <g id="_2032606" data-name="2032606" transform="translate(-129.158 1041.176)" opacity="0.222">
    <path id="Tracé_11" data-name="Tracé 11" d="M115.412-1049.982l-.373.045a8.206,8.206,0,0,0-5.813,3.494,9,9,0,0,0-.605,8.234,15.325,15.325,0,0,0,3.646,5.2,51.743,51.743,0,0,0,5.336,4.534,37.526,37.526,0,0,1,3.816,3.243,9.355,9.355,0,0,1,1.762,2.245,1.594,1.594,0,0,0,.146.259.926.926,0,0,0,.113-.194,11.62,11.62,0,0,1,2.7-3.178c.754-.671,1.315-1.127,3.369-2.74a46.5,46.5,0,0,0,4.889-4.185,16.8,16.8,0,0,0,3.05-3.938,9.93,9.93,0,0,0,1.02-7.128,7.46,7.46,0,0,0-1.893-3.407,8.312,8.312,0,0,0-6-2.507,7.221,7.221,0,0,0-6.308,3.369,8.725,8.725,0,0,0-.859,1.941c-.063.221-.11.3-.11.182a8.161,8.161,0,0,0-.549-1.452,7.065,7.065,0,0,0-5.592-3.98C116.933-1049.973,115.582-1050.006,115.412-1049.982Z" transform="translate(21.465 9)" fill="#ef0051" stroke="#707070" stroke-width="0.3"/>
  </g>
</svg>
