<svg xmlns="http://www.w3.org/2000/svg" width="33.966" height="36" viewBox="0 0 33.966 36">
  <g id="podcast" transform="translate(-0.348 0.001)">
    <path id="Tracé_12" data-name="Tracé 12" d="M156.808,57.145a.623.623,0,1,0-1.245,0,8.674,8.674,0,0,1-6.849,8.516v-1.9a7.485,7.485,0,0,0,5.6-7.235v-9.34a7.472,7.472,0,1,0-14.944,0v9.34a7.485,7.485,0,0,0,5.6,7.235v1.9a8.673,8.673,0,0,1-6.849-8.516.623.623,0,0,0-1.245,0,9.912,9.912,0,0,0,8.094,9.785v1.423h-2.491a3.117,3.117,0,0,0-3.113,3.113.622.622,0,0,0,.623.622h13.7a.622.622,0,0,0,.622-.622,3.117,3.117,0,0,0-3.113-3.113h-2.49V66.93A9.913,9.913,0,0,0,156.808,57.145Zm-16.158,0h3.082a.623.623,0,1,0,0-1.245h-3.113V54.032h3.113a.623.623,0,0,0,0-1.246h-3.113V50.919h3.113a.623.623,0,0,0,0-1.246h-3.113V47.805h3.113a.623.623,0,1,0,0-1.245H140.65a6.227,6.227,0,0,1,12.391,0h-3.082a.623.623,0,1,0,0,1.245h3.113v1.868h-3.113a.623.623,0,0,0,0,1.246h3.113v1.868h-3.113a.623.623,0,1,0,0,1.246h3.113V55.9h-3.113a.623.623,0,1,0,0,1.245h3.082a6.239,6.239,0,0,1-5.075,5.5h0a6.22,6.22,0,0,1-7.315-5.5ZM151.2,69.6a1.871,1.871,0,0,1,1.761,1.246h-12.24a1.872,1.872,0,0,1,1.761-1.246H145.6a.622.622,0,0,0,.623-.622V63.967c.205.017.413.028.622.028s.417-.011.623-.028v5.009a.622.622,0,0,0,.623.622Zm0,0" transform="translate(-124.082 -36.09)" fill="#fff"/>
    <path id="Tracé_13" data-name="Tracé 13" d="M306.994,28.386a2.538,2.538,0,0,1,1.842,2.425.623.623,0,0,0,.623.613h.01a.623.623,0,0,0,.613-.632,3.781,3.781,0,0,0-2.735-3.6.622.622,0,1,0-.353,1.194Zm0,0" transform="translate(-278.272 -24.689)" fill="#fff"/>
    <path id="Tracé_14" data-name="Tracé 14" d="M315.648,2.322A6.349,6.349,0,0,0,312.111.017a.623.623,0,0,0-.293,1.211,5.064,5.064,0,0,1,3.879,4.89.622.622,0,0,0,.622.617h.005a.623.623,0,0,0,.617-.628A6.277,6.277,0,0,0,315.648,2.322Zm0,0" transform="translate(-282.629 0)" fill="#fff"/>
    <path id="Tracé_15" data-name="Tracé 15" d="M86.993,5.762,85.158,7.6a.623.623,0,1,0,.88.88l1.835-1.836a.623.623,0,1,0-.881-.88Zm0,0" transform="translate(-76.909 -5.072)" fill="#fff"/>
    <path id="Tracé_16" data-name="Tracé 16" d="M46.74,46.012,44.9,47.848a.623.623,0,1,0,.88.88l1.836-1.836a.623.623,0,1,0-.88-.88Zm0,0" transform="translate(-40.327 -41.651)" fill="#fff"/>
    <path id="Tracé_17" data-name="Tracé 17" d="M45.785,5.762a.623.623,0,1,0-.88.88L46.74,8.479a.623.623,0,1,0,.88-.88Zm0,0" transform="translate(-40.327 -5.072)" fill="#fff"/>
    <path id="Tracé_18" data-name="Tracé 18" d="M86.038,46.012a.623.623,0,1,0-.88.88l1.835,1.836a.623.623,0,0,0,.881-.88Zm0,0" transform="translate(-76.909 -41.651)" fill="#fff"/>
    <path id="Tracé_19" data-name="Tracé 19" d="M2.838,203.551a2.491,2.491,0,1,0,2.49,2.491A2.493,2.493,0,0,0,2.838,203.551Zm0,3.736a1.245,1.245,0,1,1,1.245-1.245A1.247,1.247,0,0,1,2.838,207.287Zm0,0" transform="translate(0 -184.986)" fill="#fff"/>
    <path id="Tracé_20" data-name="Tracé 20" d="M84.138,143.047a.934.934,0,1,1-.934-.934A.934.934,0,0,1,84.138,143.047Zm0,0" transform="translate(-74.45 -129.152)" fill="#fff"/>
  </g>
</svg>
