<svg xmlns="http://www.w3.org/2000/svg" width="26.507" height="28.81" viewBox="0 0 26.507 28.81">
  <g id="bell" opacity="0.19">
    <path id="Tracé_37" data-name="Tracé 37" d="M24,19.631h0c-.828,0-1.3-.43-1.564-1.437a18.515,18.515,0,0,1-.293-4.1,26.545,26.545,0,0,0-.5-6.025.428.428,0,0,0-.831.2,25.9,25.9,0,0,1,.476,5.827,18.964,18.964,0,0,0,.321,4.316,3.438,3.438,0,0,0,.562,1.217H4.339A3.438,3.438,0,0,0,4.9,18.414,18.952,18.952,0,0,0,5.222,14.1c.015-2.5.033-5.329,1.055-7.5,1.15-2.439,3.432-3.625,6.977-3.625a9.118,9.118,0,0,1,4.734,1.087,5.743,5.743,0,0,1,2.325,2.718.428.428,0,0,0,.784-.344A6.66,6.66,0,0,0,18.43,3.332a8.12,8.12,0,0,0-2.635-.979,2.548,2.548,0,0,0-5.081,0,8.2,8.2,0,0,0-2.53.916A6.6,6.6,0,0,0,5.5,6.237c-1.1,2.338-1.121,5.269-1.136,7.856a18.5,18.5,0,0,1-.293,4.1c-.268,1.006-.735,1.436-1.564,1.437h0a2.509,2.509,0,0,0,0,5.017H5.217a.428.428,0,1,0,0-.856H2.509a1.653,1.653,0,0,1,0-3.306H24a1.653,1.653,0,0,1,0,3.306H6.928a.428.428,0,0,0,0,.856H8.685a4.589,4.589,0,0,0,9.137,0H24a2.509,2.509,0,0,0,0-5.017ZM13.254.856a1.7,1.7,0,0,1,1.66,1.36,14.677,14.677,0,0,0-3.32,0A1.7,1.7,0,0,1,13.254.856Zm0,27.1a3.739,3.739,0,0,1-3.708-3.306h7.417A3.739,3.739,0,0,1,13.254,27.954Zm0,0"/>
    <path id="Tracé_38" data-name="Tracé 38" d="M353.962,34.277a5.551,5.551,0,0,1,1.519,1.449,8.228,8.228,0,0,1,1.513,5.023.428.428,0,0,0,.856,0,9.079,9.079,0,0,0-1.712-5.573,6.253,6.253,0,0,0-1.761-1.647.428.428,0,0,0-.415.748Zm0,0" transform="translate(-333.838 -31.592)"/>
    <path id="Tracé_39" data-name="Tracé 39" d="M411.734,37.3a4.532,4.532,0,0,1,1.686,3.862.428.428,0,0,0,.856,0,5.358,5.358,0,0,0-2.081-4.583.428.428,0,0,0-.461.721Zm0,0" transform="translate(-388.382 -34.462)"/>
    <path id="Tracé_40" data-name="Tracé 40" d="M44.775,41.176a.428.428,0,0,0,.428-.428,8.229,8.229,0,0,1,1.513-5.023,5.568,5.568,0,0,1,1.519-1.449.428.428,0,0,0-.415-.748,6.254,6.254,0,0,0-1.761,1.647,9.08,9.08,0,0,0-1.712,5.573A.428.428,0,0,0,44.775,41.176Zm0,0" transform="translate(-41.852 -31.591)"/>
    <path id="Tracé_41" data-name="Tracé 41" d="M11.319,41.594a.428.428,0,0,0,.428-.428,4.531,4.531,0,0,1,1.686-3.862.428.428,0,0,0-.461-.721,5.358,5.358,0,0,0-2.081,4.582A.428.428,0,0,0,11.319,41.594Zm0,0" transform="translate(-10.278 -34.463)"/>
  </g>
</svg>
