<svg xmlns="http://www.w3.org/2000/svg" width="50.977" height="50.721" viewBox="0 0 50.977 50.721">
  <g id="edit" transform="translate(0 -0.261)">
    <path id="Tracé_31" data-name="Tracé 31" d="M47.05,66.062a1.269,1.269,0,0,0-1.27,1.27V78.6a3.813,3.813,0,0,1-3.809,3.809H6.348A3.813,3.813,0,0,1,2.539,78.6V45.52a3.813,3.813,0,0,1,3.809-3.809H17.621a1.27,1.27,0,0,0,0-2.539H6.348A6.355,6.355,0,0,0,0,45.52V78.6a6.355,6.355,0,0,0,6.348,6.348H41.972A6.355,6.355,0,0,0,48.32,78.6V67.332A1.269,1.269,0,0,0,47.05,66.062Zm0,0" transform="translate(0 -33.971)" fill="#ef0051"/>
    <path id="Tracé_32" data-name="Tracé 32" d="M142.271,1.934a5.713,5.713,0,0,0-8.08,0l-22.65,22.65a1.269,1.269,0,0,0-.326.559L108.236,35.9A1.269,1.269,0,0,0,109.8,37.46l10.753-2.979a1.269,1.269,0,0,0,.559-.326L143.76,11.5a5.719,5.719,0,0,0,0-8.08ZM114.307,25.41,132.844,6.872l5.979,5.979L120.285,31.388Zm-1.194,2.4,4.776,4.777-6.607,1.83Zm28.853-18.1-1.346,1.346L134.64,5.076l1.347-1.346a3.174,3.174,0,0,1,4.488,0l1.49,1.49A3.179,3.179,0,0,1,141.965,9.708Zm0,0" transform="translate(-94.454)" fill="#ef0051"/>
  </g>
</svg>
