<svg xmlns="http://www.w3.org/2000/svg" width="53.443" height="85.467" viewBox="0 0 53.443 85.467">
  <g id="mic_1_" data-name="mic (1)" transform="translate(-95.922)">
    <g id="Groupe_34" data-name="Groupe 34" transform="translate(107.671)">
      <g id="Groupe_33" data-name="Groupe 33">
        <path id="Tracé_45" data-name="Tracé 45" d="M181.279,0a14.989,14.989,0,0,0-14.972,14.972V44.4a14.972,14.972,0,0,0,29.944.1V14.972A14.989,14.989,0,0,0,181.279,0Zm8.733,44.5a8.734,8.734,0,0,1-17.467-.1V14.972a8.733,8.733,0,1,1,17.467,0Z" transform="translate(-166.307)"/>
      </g>
    </g>
    <g id="Groupe_36" data-name="Groupe 36" transform="translate(119.524 68.311)">
      <g id="Groupe_35" data-name="Groupe 35">
        <rect id="Rectangle_33" data-name="Rectangle 33" width="6.238" height="14.037"/>
      </g>
    </g>
    <g id="Groupe_38" data-name="Groupe 38" transform="translate(111.31 79.228)">
      <g id="Groupe_37" data-name="Groupe 37">
        <path id="Tracé_46" data-name="Tracé 46" d="M207.654,474.628H191.226a3.119,3.119,0,0,0,0,6.238h16.428a3.119,3.119,0,0,0,0-6.238Z" transform="translate(-188.107 -474.628)"/>
      </g>
    </g>
    <g id="Groupe_40" data-name="Groupe 40" transform="translate(95.922 39.198)">
      <g id="Groupe_39" data-name="Groupe 39">
        <path id="Tracé_47" data-name="Tracé 47" d="M146.245,234.822a3.119,3.119,0,0,0-3.119,3.119v2.5a20.483,20.483,0,1,1-40.966,0v-2.5a3.119,3.119,0,0,0-6.238,0v2.5a26.721,26.721,0,0,0,53.443,0v-2.5A3.119,3.119,0,0,0,146.245,234.822Z" transform="translate(-95.922 -234.822)"/>
      </g>
    </g>
  </g>
</svg>
