<svg xmlns="http://www.w3.org/2000/svg" width="71.344" height="85.905" viewBox="0 0 71.344 85.905">
  <g id="mic" transform="translate(-40.265)">
    <g id="Groupe_32" data-name="Groupe 32" transform="translate(40.265)">
      <path id="Tracé_42" data-name="Tracé 42" d="M80.474,198.468a24.087,24.087,0,0,1-.774-5.833v-6.609a3.3,3.3,0,0,0-6.609,0v6.608a29,29,0,0,0,2.169,11.049Z" transform="translate(-67.155 -149.682)" fill="#ed0050"/>
      <path id="Tracé_43" data-name="Tracé 43" d="M75.937,107.414A16.566,16.566,0,0,0,92.456,90.9V84.287l18.637-18.636a1.624,1.624,0,0,0,0-2.375l-4.232-4.234a1.623,1.623,0,0,0-2.375,0l-63.7,63.705a1.625,1.625,0,0,0,0,2.375l4.233,4.233a1.625,1.625,0,0,0,2.375,0L60.5,116.243a28.373,28.373,0,0,0,12.132,4.182v6.815H59.417a3.3,3.3,0,0,0,0,6.609H92.456a3.3,3.3,0,0,0,0-6.609H79.241v-6.815A29.732,29.732,0,0,0,105.672,90.9v-6.61a3.3,3.3,0,0,0-6.608,0V90.9a23.178,23.178,0,0,1-23.128,23.127,22.416,22.416,0,0,1-10.583-2.633l4.956-4.955A16.863,16.863,0,0,0,75.937,107.414Z" transform="translate(-40.265 -47.943)" fill="#ed0050"/>
      <path id="Tracé_44" data-name="Tracé 44" d="M172.231,3.047a16.434,16.434,0,0,0-21.192,1.807,15.908,15.908,0,0,0-4.852,11.667V42.952l32.059-32.059A16.379,16.379,0,0,0,172.231,3.047Z" transform="translate(-127.034)" fill="#ed0050"/>
    </g>
  </g>
</svg>
