<svg xmlns="http://www.w3.org/2000/svg" width="32.655" height="32.736" viewBox="0 0 32.655 32.736">
  <g id="radio" transform="translate(-0.632 0)">
    <g id="Groupe_12" data-name="Groupe 12" transform="translate(0.632 0)">
      <g id="Groupe_11" data-name="Groupe 11" transform="translate(0 0)">
        <path id="Tracé_21" data-name="Tracé 21" d="M30.356,8.955a3.734,3.734,0,0,0-3.727-3.617h-.644a3.734,3.734,0,0,0-3.727,3.6H8.2L18.739,1.75A.958.958,0,0,0,17.66.166L4.794,8.937H3.9A3.276,3.276,0,0,0,.632,12.209V26.639A3.276,3.276,0,0,0,3.9,29.911H4.959A2.916,2.916,0,0,0,7.87,32.735H9.414a2.916,2.916,0,0,0,2.911-2.824h9.12a2.916,2.916,0,0,0,2.911,2.824H25.9a2.916,2.916,0,0,0,2.911-2.824h1.2a3.276,3.276,0,0,0,3.273-3.273V12.209A3.277,3.277,0,0,0,30.356,8.955Zm-4.372-1.7h.644a1.816,1.816,0,0,1,1.809,1.682H24.175A1.816,1.816,0,0,1,25.984,7.255ZM9.414,30.819H7.87a1,1,0,0,1-.993-.908h3.53A1,1,0,0,1,9.414,30.819Zm16.486,0H24.356a1,1,0,0,1-.993-.908h3.53A1,1,0,0,1,25.9,30.819Zm4.114-2.824H3.9a1.358,1.358,0,0,1-1.356-1.356V12.209A1.358,1.358,0,0,1,3.9,10.853H30.014a1.358,1.358,0,0,1,1.356,1.356V26.639h0A1.358,1.358,0,0,1,30.014,27.995Z" transform="translate(-0.632 0)" fill="#fff"/>
      </g>
    </g>
    <g id="Groupe_14" data-name="Groupe 14" transform="translate(4.321 12.447)">
      <g id="Groupe_13" data-name="Groupe 13">
        <path id="Tracé_22" data-name="Tracé 22" d="M81.319,194.676H60.631a2.3,2.3,0,0,0-2.294,2.294v2.376a2.3,2.3,0,0,0,2.294,2.294H81.319a2.3,2.3,0,0,0,2.294-2.294V196.97A2.3,2.3,0,0,0,81.319,194.676Zm.378,4.67a.378.378,0,0,1-.378.378h-.9V198.03a.958.958,0,0,0-1.916,0v1.693H76.966v-.475a.958.958,0,1,0-1.916,0v.475H73.742v-1.673a.958.958,0,0,0-1.916,0v1.673H70.292v-.455a.958.958,0,1,0-1.916,0v.455h-1.5v-1.63a.958.958,0,0,0-1.916,0v1.63H63.424v-.411a.958.958,0,0,0-1.916,0v.411h-.876a.378.378,0,0,1-.378-.378V196.97a.378.378,0,0,1,.378-.378H81.319a.378.378,0,0,1,.378.378v2.376Z" transform="translate(-58.337 -194.676)" fill="#fff"/>
      </g>
    </g>
    <g id="Groupe_16" data-name="Groupe 16" transform="translate(23.063 20.427)">
      <g id="Groupe_15" data-name="Groupe 15">
        <path id="Tracé_23" data-name="Tracé 23" d="M354.74,319.494a3.273,3.273,0,1,0,3.273,3.273A3.277,3.277,0,0,0,354.74,319.494Zm0,4.63a1.357,1.357,0,1,1,1.357-1.357A1.358,1.358,0,0,1,354.74,324.124Z" transform="translate(-351.467 -319.494)" fill="#fff"/>
      </g>
    </g>
    <g id="Groupe_18" data-name="Groupe 18" transform="translate(4.321 20.84)">
      <g id="Groupe_17" data-name="Groupe 17">
        <path id="Tracé_24" data-name="Tracé 24" d="M75.179,327.849H62.593v-.944a.958.958,0,0,0-1.916,0v.944H59.294a.958.958,0,0,0,0,1.916h1.383v.694a.958.958,0,0,0,1.916,0v-.694H75.179a.958.958,0,0,0,0-1.916Z" transform="translate(-58.336 -325.947)" fill="#fff"/>
      </g>
    </g>
  </g>
</svg>
